<svg xmlns:dc="http://purl.org/dc/elements/1.1/" xmlns:cc="http://creativecommons.org/ns#" xmlns:rdf="http://www.w3.org/1999/02/22-rdf-syntax-ns#" xmlns:svg="http://www.w3.org/2000/svg" xmlns="http://www.w3.org/2000/svg" xmlns:sodipodi="http://sodipodi.sourceforge.net/DTD/sodipodi-0.dtd" xmlns:inkscape="http://www.inkscape.org/namespaces/inkscape" version="1.1" x="0px" y="0px" viewBox="0 0 64 80"><g transform="translate(0,-988.3622)"><path style="text-indent:0;text-transform:none;direction:ltr;block-progression:tb;baseline-shift:baseline;color:#000000;enable-background:accumulate;" d="m 32,1047.3622 c 14.8999,0 27,-12.1002 27,-27 0,-14.8998 -12.1001,-27 -27,-27 -14.8998,0 -27,12.1002 -27,27 0,14.8998 12.1002,27 27,27 z m 0,-2 c -13.8189,0 -25,-11.181 -25,-25 0,-13.819 11.1811,-25 25,-25 13.819,0 25,11.181 25,25 0,13.819 -11.181,25 -25,25 z m 0,-11 c 4.6549,-4.1798 9.3316,-8.3354 14,-12.5 l -1.3125,-1.5 L 32,1031.6747 19.3437,1020.3622 18,1021.8622 c 4.6462,4.1895 9.3701,8.2923 14,12.5 z m 0,-12 c 4.6549,-4.1798 9.3316,-8.3354 14,-12.5 l -1.3125,-1.5 L 32,1019.6747 19.3437,1008.3622 18,1009.8622 c 4.6462,4.1895 9.3701,8.2923 14,12.5 z" fill="#000000" fill-opacity="1" stroke="none" marker="none" visibility="visible" display="inline" overflow="visible"/></g><text x="0" y="79" fill="#000000" font-size="5px" font-weight="bold" font-family="'Helvetica Neue', Helvetica, Arial-Unicode, Arial, Sans-serif">Created by arjuazka</text><text x="0" y="84" fill="#000000" font-size="5px" font-weight="bold" font-family="'Helvetica Neue', Helvetica, Arial-Unicode, Arial, Sans-serif">from the Noun Project</text></svg>