<svg xmlns:dc="http://purl.org/dc/elements/1.1/" xmlns:cc="http://creativecommons.org/ns#" xmlns:rdf="http://www.w3.org/1999/02/22-rdf-syntax-ns#" xmlns:svg="http://www.w3.org/2000/svg" xmlns="http://www.w3.org/2000/svg" xmlns:sodipodi="http://sodipodi.sourceforge.net/DTD/sodipodi-0.dtd" xmlns:inkscape="http://www.inkscape.org/namespaces/inkscape" version="1.1" x="0px" y="0px" viewBox="0 0 64 80"><g transform="translate(0,-988.3622)"><path style="text-indent:0;text-transform:none;direction:ltr;block-progression:tb;baseline-shift:baseline;color:#000000;enable-background:accumulate;" d="m 59,1020.3622 c 0,-14.8999 -12.1002,-27 -27,-27 -14.8998,0 -27,12.1001 -27,27 0,14.8998 12.1002,27 27,27 14.8998,0 27,-12.1002 27,-27 z m -2,0 c 0,13.8189 -11.181,25 -25,25 -13.819,0 -25,-11.1811 -25,-25 0,-13.819 11.181,-25 25,-25 13.819,0 25,11.181 25,25 z m -11,0 c -4.1798,-4.6549 -8.3354,-9.3316 -12.5,-14 l -1.5,1.3125 11.3125,12.6875 -11.3125,12.6563 1.5,1.3437 c 4.1895,-4.6462 8.2923,-9.3701 12.5,-14 z m -12,0 c -4.1798,-4.6549 -8.3354,-9.3316 -12.5,-14 l -1.5,1.3125 11.3125,12.6875 -11.3125,12.6563 1.5,1.3437 c 4.1895,-4.6462 8.2923,-9.3701 12.5,-14 z" fill="#000000" fill-opacity="1" stroke="none" marker="none" visibility="visible" display="inline" overflow="visible"/></g><text x="0" y="79" fill="#000000" font-size="5px" font-weight="bold" font-family="'Helvetica Neue', Helvetica, Arial-Unicode, Arial, Sans-serif">Created by arjuazka</text><text x="0" y="84" fill="#000000" font-size="5px" font-weight="bold" font-family="'Helvetica Neue', Helvetica, Arial-Unicode, Arial, Sans-serif">from the Noun Project</text></svg>